<?xml version="1.0" standalone="no"?>
<!DOCTYPE svg PUBLIC "-//W3C//DTD SVG 20010904//EN"
 "http://www.w3.org/TR/2001/REC-SVG-20010904/DTD/svg10.dtd">
<svg version="1.0" xmlns="http://www.w3.org/2000/svg"
 width="768.000000pt" height="768.000000pt" viewBox="0 0 768.000000 768.000000"
 preserveAspectRatio="xMidYMid meet">

<g transform="translate(0.000000,768.000000) scale(0.100000,-0.100000)"
fill="#000000" stroke="none">
<path d="M6945 7351 c-56 -7 -153 -40 -172 -58 -7 -6 -28 -21 -47 -33 -19 -11
-77 -74 -128 -138 -51 -64 -150 -188 -220 -274 -71 -86 -128 -161 -128 -165 0
-5 22 -30 50 -57 48 -46 50 -50 43 -90 -5 -32 -16 -49 -52 -81 -58 -50 -161
-155 -182 -186 l-16 -24 -87 78 c-48 42 -117 97 -154 121 -37 25 -76 53 -88
63 -11 10 -27 23 -36 28 -8 6 -26 17 -39 26 -86 58 -287 169 -377 207 -126 54
-200 64 -272 37 -25 -10 -54 -17 -65 -17 -22 0 -179 53 -214 71 -62 34 -408
114 -549 128 -42 5 -193 7 -335 6 -269 -3 -411 -16 -576 -55 -47 -11 -95 -21
-106 -22 -11 -2 -29 -5 -40 -9 -11 -3 -72 -21 -135 -40 -63 -19 -142 -43 -175
-52 -64 -19 -261 -94 -335 -127 -25 -11 -70 -32 -100 -45 -30 -13 -75 -34
-100 -45 -25 -11 -61 -27 -80 -35 -19 -8 -46 -21 -60 -29 -14 -8 -68 -37 -121
-64 -53 -27 -116 -62 -140 -78 -24 -17 -62 -40 -84 -51 -65 -35 -78 -44 -121
-81 -22 -19 -90 -73 -150 -119 -119 -92 -276 -246 -351 -344 -26 -34 -55 -71
-65 -81 -10 -11 -30 -38 -45 -60 -30 -43 -58 -79 -85 -107 -9 -9 -19 -28 -23
-41 -5 -12 -15 -34 -23 -46 -34 -53 -120 -220 -166 -324 -38 -85 -118 -317
-131 -376 -4 -18 -13 -36 -21 -39 -11 -4 -5 -15 23 -43 21 -20 51 -51 66 -68
32 -34 228 -134 297 -150 101 -24 279 -36 334 -22 17 5 47 11 67 14 19 4 44
12 54 20 17 12 17 14 -6 45 -21 29 -24 43 -23 120 0 75 5 96 28 142 15 30 34
74 43 99 22 66 148 275 207 345 l26 30 -1 -1125 c-1 -1063 -2 -1129 -20 -1206
-11 -45 -19 -90 -19 -100 -1 -37 -49 60 -91 181 -22 66 -51 150 -64 186 -21
61 -63 233 -102 419 -27 131 -76 289 -98 318 -27 37 -89 94 -118 108 -40 21
-147 29 -212 16 -27 -6 -97 -22 -154 -37 -94 -25 -109 -26 -155 -16 -28 7 -64
13 -81 14 l-30 2 2 -125 c6 -308 41 -533 123 -780 16 -47 34 -105 40 -129 6
-24 22 -67 34 -95 13 -28 37 -87 56 -131 63 -154 205 -433 293 -575 63 -102
127 -229 127 -254 0 -12 -16 -37 -35 -56 -19 -19 -35 -39 -35 -45 0 -7 22 -30
49 -53 l48 -41 164 177 c275 296 431 470 559 622 68 80 214 251 325 380 507
589 635 741 635 755 0 4 -43 54 -96 111 l-96 104 19 23 c37 49 188 217 193
217 4 0 107 -107 231 -237 445 -471 571 -603 578 -602 3 0 40 42 82 92 42 51
246 292 454 537 332 392 439 518 736 875 36 44 161 197 278 340 117 143 238
292 270 330 252 308 557 683 604 745 94 123 211 262 229 274 14 9 25 3 60 -30
38 -36 107 -87 288 -213 l49 -33 33 38 c18 20 42 49 53 64 36 49 149 194 171
220 142 164 190 224 216 275 29 57 30 64 32 200 0 113 -3 147 -17 177 -27 59
-71 102 -129 127 -29 13 -60 27 -69 31 -15 8 -63 16 -144 24 -16 2 -52 0 -80
-3z m-2855 -1066 c115 -10 358 -45 383 -55 12 -4 56 -16 97 -25 176 -40 494
-186 719 -329 73 -47 136 -87 138 -90 3 -2 -686 -4 -1530 -3 -845 1 -1533 5
-1531 9 3 4 26 20 52 35 26 15 63 38 81 51 29 19 149 80 341 172 140 68 525
185 689 210 41 6 77 13 82 15 4 3 81 8 171 11 89 3 164 7 165 8 3 3 40 0 143
-9z m-224 -958 c112 -9 130 -13 212 -55 77 -38 206 -144 261 -212 30 -37 36
-40 82 -40 l51 0 90 -95 91 -95 22 30 c12 17 83 97 156 178 142 156 208 231
308 352 77 93 109 119 122 99 8 -12 10 -12 19 1 5 8 10 11 11 5 1 -5 3 -14 4
-20 2 -5 3 -16 4 -22 0 -7 5 -13 11 -13 5 0 7 13 4 30 -5 23 -3 30 9 30 9 0
19 -4 22 -10 3 -5 2 -10 -2 -10 -5 0 -9 -9 -9 -20 0 -11 5 -20 10 -20 5 0 1
-6 -9 -14 -11 -8 -24 -13 -30 -12 -5 2 -7 1 -2 -1 4 -3 7 -9 7 -14 0 -6 -4 -8
-9 -5 -5 3 -11 -1 -14 -8 -3 -8 -1 -17 6 -19 7 -2 -9 -28 -38 -62 -27 -32 -84
-99 -125 -151 -41 -51 -129 -157 -196 -236 -66 -78 -136 -163 -155 -188 -42
-55 -223 -267 -428 -504 -86 -99 -238 -277 -339 -395 -100 -119 -188 -217
-195 -219 -13 -3 -363 355 -454 463 -71 84 -282 295 -296 295 -7 1 -55 -45
-108 -102 l-97 -102 -53 58 c-92 98 -190 196 -197 196 -4 1 -18 15 -32 32 -14
17 -60 66 -102 109 -43 42 -78 83 -78 91 0 7 18 31 39 53 22 22 37 43 34 48
-2 4 1 7 6 7 6 0 11 6 11 14 0 8 9 18 20 21 11 3 20 13 20 21 0 8 4 13 9 10 4
-3 24 14 44 37 19 23 45 53 56 67 12 14 35 40 53 58 18 17 29 32 25 32 -3 0 5
11 19 25 14 14 29 23 35 20 5 -4 18 10 30 29 12 20 26 36 31 36 6 0 4 8 -3 17
-10 12 -10 14 -1 9 7 -4 15 -1 18 8 3 9 12 16 20 16 7 0 18 8 23 18 6 9 11 13
11 7 0 -5 7 1 16 13 8 12 20 20 25 17 5 -4 9 2 9 12 0 14 2 15 9 4 6 -10 12
-4 20 21 7 20 18 35 28 35 13 0 13 -2 -3 -14 -17 -12 -17 -13 4 -13 12 0 22 4
22 10 0 10 84 38 138 47 25 3 52 24 103 76 80 81 89 79 89 -15 0 -32 3 -58 8
-59 4 0 35 -3 70 -5 l62 -4 0 145 0 144 143 -143 144 -143 79 -6z m-901 -47
c3 -5 2 -10 -4 -10 -5 0 -13 5 -16 10 -3 6 -2 10 4 10 5 0 13 -4 16 -10z
m-178 -122 c-3 -8 -6 -5 -6 6 -1 11 2 17 5 13 3 -3 4 -12 1 -19z m-49 -8 c-7
-10 -14 -18 -15 -16 -6 6 9 36 18 36 5 0 4 -9 -3 -20z m-68 -64 c0 -2 -7 -7
-16 -10 -8 -3 -12 -2 -9 4 6 10 25 14 25 6z"/>
<path d="M5240 5343 c0 -14 2 -15 9 -4 5 8 14 10 21 6 9 -5 11 -4 6 3 -11 18
-36 14 -36 -5z"/>
<path d="M3734 4488 c-51 -55 -146 -165 -180 -207 -10 -13 -41 -49 -67 -78
-27 -30 -46 -58 -42 -61 7 -7 9 -4 146 153 113 129 199 233 199 240 0 11 -9 3
-56 -47z"/>
<path d="M3840 4515 c29 -41 374 -405 379 -400 8 9 -35 57 -214 240 -103 105
-177 177 -165 160z"/>
<path d="M3230 4380 c0 -5 5 -10 11 -10 5 0 7 5 4 10 -3 6 -8 10 -11 10 -2 0
-4 -4 -4 -10z"/>
<path d="M7408 7313 c-10 -2 -18 -9 -18 -14 0 -14 16 -11 30 6 7 8 11 14 9 14
-2 -1 -12 -3 -21 -6z"/>
<path d="M3405 7220 c3 -5 8 -10 11 -10 2 0 4 5 4 10 0 6 -5 10 -11 10 -5 0
-7 -4 -4 -10z"/>
<path d="M4335 7169 c-10 -15 3 -25 16 -12 7 7 7 13 1 17 -6 3 -14 1 -17 -5z"/>
<path d="M4206 7101 c-4 -7 -5 -15 -2 -18 9 -9 19 4 14 18 -4 11 -6 11 -12 0z"/>
<path d="M4985 6960 c-3 -5 -1 -10 4 -10 6 0 11 5 11 10 0 6 -2 10 -4 10 -3 0
-8 -4 -11 -10z"/>
<path d="M620 6880 c0 -5 5 -10 11 -10 5 0 7 5 4 10 -3 6 -8 10 -11 10 -2 0
-4 -4 -4 -10z"/>
<path d="M6337 5849 c-23 -24 -135 -157 -250 -294 -114 -138 -230 -275 -257
-306 -75 -85 -249 -299 -261 -321 -6 -11 -18 -27 -27 -37 -19 -19 -77 -90
-109 -133 -12 -17 -19 -37 -16 -46 4 -10 2 -13 -5 -8 -7 4 -12 2 -12 -3 0 -6
4 -11 9 -11 5 0 11 -11 13 -25 3 -16 1 -25 -7 -25 -7 0 -15 -7 -19 -15 -3 -8
-1 -15 4 -15 6 0 10 5 10 10 0 6 4 10 10 10 5 0 7 -7 4 -15 -4 -8 -12 -15 -18
-15 -16 0 -56 -42 -56 -58 0 -7 5 -12 10 -12 6 0 10 -6 10 -14 0 -17 27 -29
35 -16 4 6 10 10 15 10 6 0 2 -9 -7 -20 -16 -19 -18 -18 -64 23 -43 39 -61 67
-41 67 4 0 8 10 9 21 1 12 0 20 -1 18 -2 -2 -39 -47 -82 -100 -44 -53 -145
-174 -226 -270 -347 -412 -398 -474 -396 -481 3 -8 193 -209 506 -535 101
-105 183 -195 183 -199 0 -5 -8 -12 -18 -16 -12 -6 -8 -7 15 -5 21 2 32 -1 32
-9 0 -7 5 -16 12 -20 6 -4 8 -3 4 4 -3 5 0 13 6 15 10 4 10 6 1 6 -18 1 -16
26 3 42 24 20 57 17 72 -6 13 -20 13 -19 7 2 -5 18 -2 20 15 16 11 -3 20 -1
20 5 0 14 -57 21 -70 8 -5 -5 -13 -6 -17 -2 -13 12 85 96 104 90 14 -5 15 -4
4 4 -14 10 -7 32 10 32 6 0 7 -5 4 -10 -3 -6 1 -10 9 -10 10 0 13 6 10 15 -4
8 -2 15 4 15 6 0 8 8 5 18 -2 10 3 24 12 32 14 11 15 6 14 -59 -1 -39 -5 -74
-10 -77 -5 -3 -5 -13 -1 -22 5 -9 7 -46 5 -82 -2 -36 -4 -109 -4 -162 -1 -54
-5 -98 -10 -98 -5 0 -9 7 -9 16 0 9 -5 12 -12 8 -8 -5 -5 -12 9 -24 15 -12 19
-24 16 -43 -3 -15 -10 -24 -16 -20 -6 4 -7 1 -2 -7 12 -19 7 -184 -5 -188 -7
-3 -8 -8 -1 -16 7 -8 7 -24 3 -42 -5 -16 -8 -41 -7 -56 1 -16 -2 -28 -7 -28
-4 0 -7 -3 -7 -8 4 -25 -34 -80 -53 -74 -5 1 -7 -2 -4 -7 7 -11 -18 -33 -27
-24 -4 3 -7 -2 -7 -12 0 -14 -3 -15 -15 -5 -12 10 -15 10 -15 -3 0 -9 -13 -18
-31 -22 -36 -8 -39 -6 -44 31 -6 49 -7 50 -14 24 -4 -14 -13 -24 -20 -22 -7 1
-10 -2 -6 -8 3 -5 1 -10 -5 -10 -6 0 -9 -4 -6 -9 3 -5 -1 -12 -10 -15 -24 -9
-26 -8 -19 13 3 11 1 22 -4 26 -7 3 -8 0 -5 -9 3 -9 1 -16 -6 -16 -6 0 -8 -4
-5 -10 4 -6 -51 -10 -157 -11 -235 -2 -289 -2 -523 -1 -115 1 -267 0 -338 -1
-70 -1 -127 1 -127 5 0 9 78 106 120 149 46 48 123 144 134 169 5 11 17 20 28
20 10 0 18 5 18 11 0 5 -5 7 -12 3 -7 -4 -8 -3 -4 4 4 7 -73 92 -192 211 -110
110 -202 205 -204 211 -2 7 -24 -9 -51 -36 -34 -36 -47 -57 -47 -79 -1 -16 -1
-82 -2 -145 -1 -63 -4 -137 -7 -164 l-6 -50 -26 35 c-14 19 -56 63 -93 99 -36
36 -66 68 -66 72 0 3 25 31 56 61 67 63 67 64 -27 143 l-63 54 -308 0 c-169 0
-308 3 -308 8 0 4 70 88 155 187 85 99 154 187 155 195 0 9 -25 40 -56 70
l-55 55 -49 -52 c-27 -29 -142 -162 -256 -295 -115 -134 -269 -313 -344 -398
-74 -85 -214 -247 -311 -360 -97 -113 -232 -266 -299 -339 -67 -74 -198 -221
-290 -325 -92 -105 -204 -229 -249 -276 -45 -47 -110 -118 -144 -158 l-61 -72
-79 0 c-44 0 -106 7 -139 15 -71 19 -200 77 -246 112 -19 14 -37 21 -41 17
-46 -51 -276 -374 -302 -424 -33 -63 -34 -69 -34 -180 0 -63 2 -135 4 -160 12
-129 114 -208 280 -217 75 -4 100 -2 158 17 166 55 212 94 374 320 46 63 91
124 101 134 10 11 18 24 18 29 0 5 9 21 21 35 63 81 109 149 109 163 0 8 -14
28 -31 45 -17 16 -40 41 -50 56 l-20 27 58 42 c32 23 79 62 105 86 26 24 61
46 78 49 28 6 79 54 140 131 l21 27 52 -53 c146 -151 501 -373 826 -518 325
-144 738 -249 1011 -257 359 -10 928 54 1235 140 204 58 482 165 580 224 33
20 105 61 160 90 55 29 143 83 195 119 250 171 314 245 312 363 -1 55 0 58 19
47 31 -16 50 -4 115 69 77 86 258 313 289 363 14 21 44 60 68 87 41 46 44 54
51 121 7 81 18 107 80 189 24 31 60 82 79 112 20 30 51 75 68 100 57 80 72
140 72 275 0 106 -3 128 -26 188 -87 225 -200 369 -314 404 -86 26 -240 23
-315 -6 -32 -12 -58 -26 -58 -29 0 -4 9 -15 20 -25 11 -9 20 -25 20 -36 0 -10
9 -25 20 -32 22 -15 24 -33 17 -119 -4 -51 -42 -135 -80 -175 -7 -7 -25 -36
-42 -65 -16 -28 -60 -90 -97 -138 -38 -48 -68 -91 -68 -95 0 -13 -55 -88 -99
-136 -23 -24 -41 -47 -41 -52 0 -5 -5 -9 -10 -9 -16 0 -7 2568 9 2598 15 28
22 28 48 0 23 -25 187 -315 199 -350 3 -11 23 -57 44 -102 87 -188 128 -372
136 -610 7 -237 7 -237 62 -294 35 -37 60 -54 98 -65 55 -16 76 -14 259 26
113 24 241 28 298 8 67 -23 67 -22 67 166 -1 296 -32 494 -122 773 -67 206
-135 354 -256 558 -71 119 -157 239 -195 271 -10 8 -17 28 -17 47 0 39 -51
142 -86 175 l-24 23 -43 -45z m-817 -1139 c0 -5 -2 -10 -4 -10 -3 0 -8 5 -11
10 -3 6 -1 10 4 10 6 0 11 -4 11 -10z m-73 -22 c-3 -8 -6 -5 -6 6 -1 11 2 17
5 13 3 -3 4 -12 1 -19z m8 -88 c3 -6 -1 -7 -9 -4 -18 7 -21 14 -7 14 6 0 13
-4 16 -10z m-22 -23 c3 -8 -4 -13 -22 -12 -16 0 -25 -5 -23 -12 1 -7 -2 -13
-8 -13 -15 0 -12 11 7 32 19 21 39 23 46 5z m35 -44 c2 -7 0 -13 -5 -13 -18 0
-53 13 -53 19 0 12 53 6 58 -6z m76 -33 c-6 -6 -10 -2 -11 12 -2 16 1 18 10 9
7 -7 8 -14 1 -21z m-76 -14 c-10 -7 -14 -17 -10 -21 4 -5 1 -5 -7 0 -12 7 -11
10 4 22 24 17 36 17 13 -1z m-35 -25 c3 -13 1 -18 -9 -14 -7 2 -10 11 -7 19 7
19 10 18 16 -5z m114 -18 c-3 -3 -11 -2 -17 2 -8 5 -7 11 2 22 12 15 13 14 16
-1 2 -10 1 -20 -1 -23z m-52 -3 c-12 -19 -43 -31 -51 -18 -4 6 -3 8 3 5 6 -4
19 0 29 8 23 17 27 18 19 5z m63 -92 c2 -50 -1 -78 -7 -78 -10 0 -16 30 -12
54 1 4 -4 15 -10 22 -8 10 -9 18 -2 25 12 12 5 51 -8 43 -5 -3 -9 0 -9 5 0 6
10 10 23 9 20 -2 22 -7 25 -80z m-58 52 c0 -5 -4 -10 -10 -10 -5 0 -10 5 -10
10 0 6 5 10 10 10 6 0 10 -4 10 -10z m15 -29 c-3 -6 -11 -11 -17 -11 -6 0 -6
6 2 15 14 17 26 13 15 -4z m-2762 -1808 c1 -4 57 -63 124 -130 68 -67 123
-126 123 -132 0 -6 4 -11 9 -11 5 0 25 -14 44 -31 36 -32 41 -69 8 -69 -13 -1
-266 0 -366 1 -11 0 -95 -1 -187 -3 -94 -2 -168 1 -168 6 0 5 24 36 53 70 29
34 64 75 77 92 14 17 69 84 123 148 l99 116 29 -24 c16 -14 31 -29 32 -33z
m2547 -353 c0 -5 -2 -10 -4 -10 -3 0 -8 5 -11 10 -3 6 -1 10 4 10 6 0 11 -4
11 -10z m269 -222 c20 -31 28 -36 50 -32 23 5 35 -4 88 -64 l62 -70 -62 -26
c-34 -15 -80 -35 -101 -44 -102 -44 -331 -166 -378 -202 -29 -22 -58 -40 -65
-40 -18 0 -46 100 -77 283 -5 26 -12 37 -24 37 -9 0 -62 3 -117 6 -142 9 -260
-20 -334 -81 -74 -62 -128 -112 -188 -176 -38 -39 -79 -76 -93 -81 -63 -25
-630 -46 -765 -27 -38 5 -92 12 -120 15 -144 17 -329 59 -445 101 -205 73
-247 94 -297 142 -75 72 -143 152 -143 167 0 12 75 14 468 14 257 0 867 1
1357 3 l890 2 55 22 c31 13 80 38 110 57 70 44 98 42 129 -6z"/>
<path d="M2905 2210 c-3 -5 -1 -10 4 -10 6 0 11 5 11 10 0 6 -2 10 -4 10 -3 0
-8 -4 -11 -10z"/>
<path d="M5200 1890 c0 -5 5 -10 11 -10 5 0 7 5 4 10 -3 6 -8 10 -11 10 -2 0
-4 -4 -4 -10z"/>
<path d="M216 5105 c-9 -23 -8 -25 9 -25 17 0 19 9 6 28 -7 11 -10 10 -15 -3z"/>
<path d="M5396 4665 c4 -8 8 -15 10 -15 2 0 4 7 4 15 0 8 -4 15 -10 15 -5 0
-7 -7 -4 -15z"/>
<path d="M5355 4660 c3 -5 8 -10 11 -10 2 0 4 5 4 10 0 6 -5 10 -11 10 -5 0
-7 -4 -4 -10z"/>
<path d="M5342 4639 c2 -7 12 -13 21 -15 23 -3 21 3 -4 17 -17 8 -20 8 -17 -2z"/>
<path d="M5456 3133 c-4 -9 -2 -21 4 -27 8 -8 11 -7 8 4 -2 8 2 14 8 13 6 -1
11 5 11 13 0 19 -23 18 -31 -3z"/>
<path d="M5420 3100 c0 -5 5 -10 10 -10 6 0 10 5 10 10 0 6 -4 10 -10 10 -5 0
-10 -4 -10 -10z"/>
<path d="M5480 3071 c0 -6 4 -13 10 -16 6 -3 7 1 4 9 -7 18 -14 21 -14 7z"/>
<path d="M5367 3043 c-10 -9 -9 -23 2 -23 5 0 11 7 15 15 5 15 -5 20 -17 8z"/>
<path d="M5456 3041 c-3 -4 1 -17 8 -27 13 -17 14 -17 9 9 -6 29 -9 32 -17 18z"/>
<path d="M5530 3020 c-9 -6 -10 -10 -3 -10 6 0 15 5 18 10 8 12 4 12 -15 0z"/>
<path d="M5236 3002 c-11 -13 -13 -22 -7 -26 6 -4 7 -14 4 -22 -5 -13 -8 -13
-15 -2 -8 10 -9 9 -5 -3 3 -9 0 -22 -6 -28 -8 -8 -8 -11 0 -11 6 0 14 8 17 17
6 15 8 15 17 3 8 -11 9 -10 4 8 -3 12 -2 22 3 22 14 0 20 22 13 43 -6 17 -8
17 -25 -1z m14 -18 c0 -8 -5 -12 -10 -9 -6 4 -8 11 -5 16 9 14 15 11 15 -7z"/>
<path d="M5410 3012 c0 -5 7 -9 15 -9 8 0 12 4 9 9 -3 4 -9 8 -15 8 -5 0 -9
-4 -9 -8z"/>
<path d="M5371 2994 c0 -11 3 -14 6 -6 3 7 2 16 -1 19 -3 4 -6 -2 -5 -13z"/>
<path d="M5286 2973 c-22 -20 -26 -28 -15 -32 8 -3 14 -12 15 -18 2 -28 4 -33
14 -33 6 0 8 10 4 24 -3 15 1 29 11 40 10 10 12 16 5 16 -7 0 -10 7 -6 15 7
20 5 19 -28 -12z"/>
<path d="M5345 2959 c-4 -6 -5 -12 -2 -15 2 -3 7 2 10 11 7 17 1 20 -8 4z"/>
<path d="M5520 2943 c0 -6 -11 -27 -25 -47 -14 -21 -20 -34 -14 -30 6 3 16 0
21 -7 8 -11 9 -10 4 4 -3 10 1 32 10 49 8 16 13 32 10 36 -3 3 -6 1 -6 -5z"/>
<path d="M5327 2910 c-3 -11 -3 -20 -1 -20 2 0 8 9 14 20 6 11 7 20 2 20 -6 0
-12 -9 -15 -20z"/>
<path d="M5260 2911 c0 -7 -4 -9 -10 -6 -6 4 -7 -1 -3 -11 6 -15 7 -15 15 1 6
9 7 19 4 22 -3 4 -6 1 -6 -6z"/>
<path d="M5417 2890 c-15 -16 -22 -30 -17 -30 6 0 13 7 16 15 4 8 10 13 14 10
4 -3 10 4 13 15 7 26 5 25 -26 -10z"/>
<path d="M5196 2892 c-3 -5 1 -9 9 -9 8 0 12 4 9 9 -3 4 -7 8 -9 8 -2 0 -6 -4
-9 -8z"/>
<path d="M5230 2870 c0 -11 4 -20 9 -20 17 0 19 15 5 28 -12 11 -14 9 -14 -8z"/>
<path d="M5277 2874 c-12 -13 -8 -24 11 -24 14 0 14 -2 3 -9 -8 -5 -21 -7 -30
-4 -11 4 -10 1 3 -9 14 -11 16 -17 7 -22 -7 -5 -19 0 -27 10 -14 18 -14 18 -4
-3 7 -16 8 -29 0 -43 -8 -15 -6 -21 9 -29 10 -6 21 -7 25 -4 9 10 4 -80 -6
-99 -12 -25 4 -22 20 3 10 15 10 24 2 34 -8 10 -7 16 7 24 10 6 13 11 7 11 -7
0 -10 13 -8 30 4 31 -10 41 -20 15 -3 -8 -12 -12 -20 -9 -12 5 -13 10 -5 25 5
11 14 17 20 14 5 -4 9 -3 8 2 -3 20 2 27 11 13 5 -8 12 -11 16 -7 4 3 2 13 -4
20 -8 9 -8 17 -2 23 7 7 6 16 -3 28 -7 9 -16 14 -20 10z"/>
<path d="M5340 2876 c0 -2 7 -7 16 -10 8 -3 12 -2 9 4 -6 10 -25 14 -25 6z"/>
<path d="M5452 2839 c2 -7 10 -15 17 -17 8 -3 12 1 9 9 -2 7 -10 15 -17 17 -8
3 -12 -1 -9 -9z"/>
<path d="M5390 2819 c0 -5 5 -7 10 -4 6 3 10 8 10 11 0 2 -4 4 -10 4 -5 0 -10
-5 -10 -11z"/>
<path d="M5500 2821 c0 -6 4 -13 10 -16 6 -3 7 1 4 9 -7 18 -14 21 -14 7z"/>
<path d="M5210 2811 c0 -6 4 -13 10 -16 6 -3 7 1 4 9 -7 18 -14 21 -14 7z"/>
<path d="M5475 2790 c-3 -6 1 -7 9 -4 18 7 21 14 7 14 -6 0 -13 -4 -16 -10z"/>
<path d="M5361 2744 c0 -11 3 -14 6 -6 3 7 2 16 -1 19 -3 4 -6 -2 -5 -13z"/>
<path d="M5314 2737 c3 -10 6 -24 7 -30 0 -7 5 -1 10 12 5 13 7 26 4 29 -3 3
-5 -1 -5 -9 0 -12 -2 -11 -11 1 -9 12 -10 12 -5 -3z"/>
<path d="M5495 2740 c3 -5 8 -10 11 -10 2 0 4 5 4 10 0 6 -5 10 -11 10 -5 0
-7 -4 -4 -10z"/>
<path d="M690 2720 c0 -5 7 -10 15 -10 8 0 15 5 15 10 0 6 -7 10 -15 10 -8 0
-15 -4 -15 -10z"/>
<path d="M5479 2728 c-5 -16 -4 -46 2 -42 4 2 7 13 6 24 -1 17 -5 26 -8 18z"/>
<path d="M5246 2705 c-9 -26 -7 -32 5 -12 6 10 9 21 6 23 -2 3 -7 -2 -11 -11z"/>
<path d="M5507 2609 c7 -7 15 -10 18 -7 3 3 -2 9 -12 12 -14 6 -15 5 -6 -5z"/>
<path d="M5280 2600 c0 -5 5 -10 11 -10 5 0 7 5 4 10 -3 6 -8 10 -11 10 -2 0
-4 -4 -4 -10z"/>
<path d="M5281 2563 c1 -10 5 -29 10 -43 l9 -25 -4 27 c-2 15 0 29 4 30 5 2 2
9 -6 16 -12 11 -14 10 -13 -5z"/>
<path d="M5321 2564 c0 -11 3 -14 6 -6 3 7 2 16 -1 19 -3 4 -6 -2 -5 -13z"/>
<path d="M5246 2523 c-6 -14 -5 -15 5 -6 7 7 10 15 7 18 -3 3 -9 -2 -12 -12z"/>
<path d="M5335 2499 c-4 -6 -5 -12 -2 -15 2 -3 7 2 10 11 7 17 1 20 -8 4z"/>
<path d="M5261 2486 c-9 -11 -9 -16 1 -22 7 -4 10 -4 6 1 -4 4 -3 14 3 22 6 7
9 13 6 13 -2 0 -10 -6 -16 -14z"/>
<path d="M5230 2461 c0 -6 4 -13 10 -16 6 -3 7 1 4 9 -7 18 -14 21 -14 7z"/>
<path d="M5330 2441 c0 -6 4 -13 10 -16 6 -3 7 1 4 9 -7 18 -14 21 -14 7z"/>
<path d="M5260 2436 c0 -2 7 -9 15 -16 9 -7 15 -8 15 -2 0 5 -7 12 -15 16 -8
3 -15 4 -15 2z"/>
<path d="M5375 2410 c3 -5 8 -10 11 -10 2 0 4 5 4 10 0 6 -5 10 -11 10 -5 0
-7 -4 -4 -10z"/>
<path d="M5270 2379 c0 -5 5 -7 10 -4 6 3 10 8 10 11 0 2 -4 4 -10 4 -5 0 -10
-5 -10 -11z"/>
<path d="M5255 2340 c-3 -6 1 -7 9 -4 18 7 21 14 7 14 -6 0 -13 -4 -16 -10z"/>
<path d="M5250 2300 c0 -11 2 -20 4 -20 2 0 6 9 9 20 3 11 1 20 -4 20 -5 0 -9
-9 -9 -20z"/>
<path d="M5286 2305 c4 -8 11 -15 16 -15 6 0 5 6 -2 15 -7 8 -14 15 -16 15 -2
0 -1 -7 2 -15z"/>
<path d="M5222 2286 c7 -8 15 -12 17 -11 5 6 -10 25 -20 25 -5 0 -4 -6 3 -14z"/>
<path d="M5336 2274 c-5 -14 -4 -15 9 -4 17 14 19 20 6 20 -5 0 -12 -7 -15
-16z"/>
<path d="M5245 2257 c-10 -8 -14 -17 -9 -20 6 -3 15 3 22 14 14 23 12 24 -13
6z"/>
<path d="M1150 1770 c0 -5 5 -10 10 -10 6 0 10 5 10 10 0 6 -4 10 -10 10 -5 0
-10 -4 -10 -10z"/>
<path d="M240 1600 c0 -5 5 -10 10 -10 6 0 10 5 10 10 0 6 -4 10 -10 10 -5 0
-10 -4 -10 -10z"/>
<path d="M1938 563 c7 -3 16 -2 19 1 4 3 -2 6 -13 5 -11 0 -14 -3 -6 -6z"/>
<path d="M3380 150 c-13 -8 -12 -10 3 -10 9 0 17 5 17 10 0 12 -1 12 -20 0z"/>
<path d="M3095 130 c4 -6 11 -8 16 -5 14 9 11 15 -7 15 -8 0 -12 -5 -9 -10z"/>
<path d="M2061 44 c0 -11 3 -14 6 -6 3 7 2 16 -1 19 -3 4 -6 -2 -5 -13z"/>
<path d="M3056 53 c-11 -11 -6 -23 9 -23 8 0 15 4 15 9 0 13 -16 22 -24 14z"/>
</g>
</svg>
